<?xml version="1.0" encoding="utf-8"?>
<!-- Generator: Adobe Illustrator 17.0.0, SVG Export Plug-In . SVG Version: 6.00 Build 0)  -->
<!DOCTYPE svg PUBLIC "-//W3C//DTD SVG 1.1//EN" "http://www.w3.org/Graphics/SVG/1.1/DTD/svg11.dtd">
<svg version="1.1" xmlns="http://www.w3.org/2000/svg" xmlns:xlink="http://www.w3.org/1999/xlink" x="0px" y="0px"
	 width="509.116px" height="306.377px" viewBox="0 0 509.116 306.377" enable-background="new 0 0 509.116 306.377"
	 xml:space="preserve">
<g id="BACKGROUND" display="none">
	<rect x="-118.499" y="-79.854" display="inline" fill="#3F0091" width="750" height="500"/>
</g>
<g id="OBJECT">
	<g display="none">
		<g display="inline">
			
				<image overflow="visible" opacity="0.35" width="715" height="467" xlink:href="267CD293.png"  transform="matrix(1 0 0 1 -92.149 -43.0373)">
			</image>
			<g>
				<path fill="#FFFFFF" d="M560.167,360.77H-47.165c-5.885,0-10.657-4.771-10.657-10.656V-9.822
					c0-5.885,4.771-10.656,10.657-10.656h607.332c5.885,0,10.656,4.771,10.656,10.656v359.935
					C570.823,355.999,566.052,360.77,560.167,360.77z"/>
			</g>
		</g>
		<g display="inline">
			<defs>
				<path id="SVGID_1_" d="M560.167,360.77H-47.165c-5.885,0-10.657-4.771-10.657-10.656V-9.822c0-5.885,4.771-10.656,10.657-10.656
					h607.332c5.885,0,10.656,4.771,10.656,10.656v359.935C570.823,355.999,566.052,360.77,560.167,360.77z"/>
			</defs>
			<clipPath id="SVGID_2_">
				<use xlink:href="#SVGID_1_"  overflow="visible"/>
			</clipPath>
			<rect x="-57.822" y="-20.479" clip-path="url(#SVGID_2_)" fill="#FFFFFF" width="628.645" height="381.248"/>
			<g clip-path="url(#SVGID_2_)">
				<g>
					<text transform="matrix(1 0 0 1 -33.2894 145.9841)"><tspan x="0" y="0" fill="#4E01D4" font-family="'Aller-Bold'" font-size="20.0153">teamwork makes</tspan><tspan x="0" y="24.019" fill="#4E01D4" font-family="'Aller-Bold'" font-size="20.0153">the dream work</tspan></text>
				</g>
				<rect x="-33.288" y="185.003" fill="none" width="171.881" height="26.145"/>
				<text transform="matrix(1 0 0 1 -33.2877 192.1236)" opacity="0.5"><tspan x="0" y="0" fill="#4E01D4" font-family="'Aller'" font-size="10.0282">Lorem</tspan><tspan x="26.906" y="0" fill="#4E01D4" font-family="'Aller'" font-size="10.0282"> </tspan><tspan x="28.697" y="0" fill="#4E01D4" font-family="'Aller'" font-size="10.0282">ipsum</tspan><tspan x="54.609" y="0" fill="#4E01D4" font-family="'Aller'" font-size="10.0282"> </tspan><tspan x="56.4" y="0" fill="#4E01D4" font-family="'Aller'" font-size="10.0282">dolor</tspan><tspan x="78.714" y="0" fill="#4E01D4" font-family="'Aller'" font-size="10.0282"> </tspan><tspan x="80.505" y="0" fill="#4E01D4" font-family="'Aller'" font-size="10.0282">sit</tspan><tspan x="90.142" y="0" fill="#4E01D4" font-family="'Aller'" font-size="10.0282"> </tspan><tspan x="91.933" y="0" fill="#4E01D4" font-family="'Aller'" font-size="10.0282">amet,</tspan><tspan x="115.549" y="0" fill="#4E01D4" font-family="'Aller'" font-size="10.0282"> </tspan><tspan x="117.34" y="0" fill="#4E01D4" font-family="'Aller'" font-size="10.0282">consectetuer </tspan><tspan x="0" y="12.033" fill="#4E01D4" font-family="'Aller'" font-size="10.0282">adipiscing</tspan><tspan x="42.87" y="12.033" fill="#4E01D4" font-family="'Aller'" font-size="10.0282"> </tspan><tspan x="45.917" y="12.033" fill="#4E01D4" font-family="'Aller'" font-size="10.0282">elit,</tspan><tspan x="61.05" y="12.033" fill="#4E01D4" font-family="'Aller'" font-size="10.0282"> </tspan><tspan x="64.097" y="12.033" fill="#4E01D4" font-family="'Aller'" font-size="10.0282">sed</tspan><tspan x="78.748" y="12.033" fill="#4E01D4" font-family="'Aller'" font-size="10.0282"> </tspan><tspan x="81.795" y="12.033" fill="#4E01D4" font-family="'Aller'" font-size="10.0282">diam</tspan><tspan x="102.995" y="12.033" fill="#4E01D4" font-family="'Aller'" font-size="10.0282"> </tspan><tspan x="106.041" y="12.033" fill="#4E01D4" font-family="'Aller'" font-size="10.0282">nonummy</tspan><tspan x="149.653" y="12.033" fill="#4E01D4" font-family="'Aller'" font-size="10.0282"> </tspan><tspan x="152.7" y="12.033" fill="#4E01D4" font-family="'Aller'" font-size="10.0282">nibh </tspan></text>
				<g>
					<path fill="#4E01D4" d="M37.996,266.483h-60.714c-5.838,0-10.57-4.732-10.57-10.57l0,0c0-5.838,4.733-10.57,10.57-10.57h60.714
						c5.838,0,10.57,4.733,10.57,10.57l0,0C48.566,261.75,43.834,266.483,37.996,266.483z"/>
					<g>
						<text transform="matrix(1 0 0 1 -21.807 260.2311)" fill="#FFFFFF" font-family="'Aller'" font-size="12">Learn More</text>
					</g>
				</g>
				<g>
					<text transform="matrix(1 0 0 1 -6.6255 29.0915)" fill="#4E01D4" font-family="'Aller-Bold'" font-size="10.2756">logo</text>
				</g>
				<g>
					<g>
						<g>
							<g>
								<path opacity="0.5" fill="#4E01D4" d="M536.549,36.18H480.59c-5.381,0-9.742-4.362-9.742-9.742l0,0
									c0-5.381,4.362-9.743,9.742-9.743h55.959c5.38,0,9.742,4.362,9.742,9.743l0,0C546.291,31.818,541.929,36.18,536.549,36.18z"
									/>
							</g>
						</g>
						<g>
							<text transform="matrix(1 0 0 1 216.7572 29.0956)" fill="#4E01D4" font-family="'Aller'" font-size="8.6308">Home</text>
						</g>
						<g opacity="0.5">
							<text transform="matrix(1 0 0 1 353.5116 29.0956)" fill="#4E01D4" font-family="'Aller'" font-size="8.6308">Course</text>
						</g>
						<g opacity="0.5">
							<text transform="matrix(1 0 0 1 423.6503 29.0956)" fill="#4E01D4" font-family="'Aller'" font-size="8.6308">Pricing</text>
						</g>
						<text transform="matrix(1 0 0 1 490.8202 29.0956)" fill="#FFFFFF" font-family="'Aller'" font-size="8.6308">Contact</text>
						<g opacity="0.5">
							<text transform="matrix(1 0 0 1 279.5204 29.0956)" fill="#4E01D4" font-family="'Aller'" font-size="8.6308">About us</text>
						</g>
						<line fill="#4E01D4" x1="216.267" y1="32.583" x2="240.475" y2="32.583"/>
					</g>
				</g>
			</g>
		</g>
	</g>
	<g>
		<path fill="#F4F3FF" d="M485.503,191.063c-8.033-11.331-19.248-21.113-22.672-34.573c-3.411-13.41,1.71-27.298,5.597-40.578
			c3.888-13.28,6.271-28.688-1.602-40.066c-10.663-15.412-33.569-14.826-51.689-10.04c-18.12,4.786-37.671,12.033-54.858,4.56
			c-20.235-8.799-27.77-34.02-45.455-47.214c-19.823-14.789-51.563-9.484-65.499,10.947c-6.676,9.788-9.503,22.033-17.372,30.89
			c-10.647,11.985-28.176,15.123-44.195,14.497c-16.019-0.626-31.982-4.258-47.944-2.771c-15.962,1.487-32.828,9.755-38.03,24.919
			c-3.971,11.574-0.304,24.361,4.795,35.485c5.099,11.124,11.7,21.804,13.936,33.834c2.236,12.031-1.247,26.288-11.972,32.18
			c-12.474,6.853-28.316-0.254-42.075,3.388c-15.52,4.107-24.681,22.294-21.542,38.039c3.139,15.744,16.302,28.216,31.361,33.781
			c15.059,5.564,31.734,5.086,47.536,2.253l267.324,2.854c18.272-0.852,32.357,1.345,49.563,0.557
			c17.206-0.787,34.911-6.91,46.035-20.061C503.639,243.973,500.632,212.405,485.503,191.063z"/>
		<g>
			<g opacity="0.29">
				
					<path fill="none" stroke="#4E01D4" stroke-width="0.9513" stroke-linecap="round" stroke-miterlimit="10" stroke-dasharray="4.509" d="
					M191.883,41.489c14.639,0.774,29.278,1.549,43.917,2.323c17.182,0.909,34.639,1.87,50.869,7.584
					c16.23,5.714,31.355,16.943,37.662,32.951c6.307,16.008,1.438,36.844-13.512,45.362"/>
				
					<path fill="none" stroke="#4E01D4" stroke-width="0.9513" stroke-linecap="round" stroke-miterlimit="10" stroke-dasharray="4.509" d="
					M45.317,189.605c-11.597,10.751-12.05,30.278-3.38,43.503c8.67,13.225,24.503,20.485,40.243,22.009
					c15.74,1.524,31.528-2.007,46.691-6.496c28.933-8.567,56.8-20.729,82.756-36.119"/>
				
					<path fill="none" stroke="#4E01D4" stroke-width="0.9513" stroke-linecap="round" stroke-miterlimit="10" stroke-dasharray="4.509" d="
					M457.105,204.433c-7.236,12.454-20.523,20.617-34.53,23.975c-14.007,3.358-28.727,2.343-42.892-0.271
					c-18.671-3.446-36.831-9.645-53.712-18.333c-8.724-4.49-17.318-9.717-26.969-11.489c-15.763-2.894-32.934,4.811-41.252,18.509"
					/>
				
					<path fill="none" stroke="#4E01D4" stroke-width="0.9513" stroke-linecap="round" stroke-miterlimit="10" stroke-dasharray="4.509" d="
					M385.764,52.781c16.078-8.738,36.702-8.442,52.522,0.754s26.285,26.971,26.648,45.266c0.364,18.295-9.385,36.472-24.827,46.29
					c-20.062,12.755-45.751,10.852-69.408,8.5"/>
			</g>
			<g>
				<path opacity="0.63" fill="#FFFFFF" d="M354.099,90.106c0.104,0.316,0.233,0.62,0.381,0.913l-1.249,1.249l2.946,2.946
					l1.249-1.249c0.293,0.148,0.597,0.277,0.913,0.381v1.764h4.166v-1.764c0.316-0.104,0.62-0.233,0.913-0.381l1.249,1.249
					l2.946-2.946l-1.249-1.249c0.148-0.293,0.277-0.597,0.381-0.913h1.764V85.94h-1.764c-0.104-0.316-0.233-0.62-0.381-0.913
					l1.249-1.249l-2.946-2.946l-1.249,1.249c-0.293-0.148-0.597-0.277-0.913-0.381v-1.764h-4.166V81.7
					c-0.316,0.104-0.62,0.233-0.913,0.381l-1.249-1.249l-2.946,2.946l1.249,1.249c-0.148,0.293-0.277,0.597-0.381,0.913h-1.764
					v4.166H354.099z M356.224,88.023c0-2.318,1.879-4.197,4.197-4.197c2.318,0,4.197,1.879,4.197,4.197
					c0,2.318-1.879,4.197-4.197,4.197C358.103,92.22,356.224,90.341,356.224,88.023z"/>
				<path opacity="0.63" fill="#FFFFFF" d="M117.297,223.583c0.118,0.361,0.266,0.708,0.435,1.042l-1.426,1.426l3.363,3.363
					l1.426-1.426c0.335,0.169,0.682,0.316,1.042,0.435v2.014h4.756v-2.014c0.361-0.119,0.708-0.266,1.043-0.435l1.426,1.426
					l3.363-3.363l-1.426-1.426c0.169-0.335,0.316-0.682,0.435-1.042h2.014v-4.756h-2.014c-0.119-0.361-0.266-0.708-0.435-1.042
					l1.426-1.426l-3.363-3.363l-1.426,1.426c-0.335-0.169-0.682-0.316-1.043-0.435v-2.014h-4.756v2.014
					c-0.361,0.119-0.708,0.266-1.043,0.435l-1.426-1.426l-3.363,3.363l1.426,1.426c-0.169,0.335-0.316,0.682-0.435,1.042h-2.014
					v4.756H117.297z M119.724,221.205c0-2.646,2.146-4.792,4.792-4.792c2.647,0,4.792,2.145,4.792,4.792
					c0,2.647-2.145,4.792-4.792,4.792C121.869,225.997,119.724,223.852,119.724,221.205z"/>
				<path opacity="0.63" fill="#FFFFFF" d="M317.775,59.201c0.055,0.166,0.122,0.326,0.2,0.479l-0.656,0.656l1.546,1.546
					l0.656-0.656c0.154,0.078,0.314,0.145,0.479,0.2v0.926h2.187v-0.926c0.166-0.055,0.326-0.122,0.479-0.2l0.656,0.656l1.547-1.546
					l-0.656-0.656c0.078-0.154,0.145-0.314,0.2-0.479h0.926v-2.187h-0.926c-0.055-0.166-0.122-0.326-0.2-0.479l0.656-0.656
					l-1.547-1.547l-0.656,0.656c-0.154-0.078-0.313-0.145-0.479-0.2v-0.926h-2.187v0.926c-0.166,0.055-0.326,0.122-0.479,0.2
					l-0.656-0.656l-1.546,1.547l0.656,0.656c-0.078,0.154-0.145,0.313-0.2,0.479h-0.926v2.187H317.775z M318.891,58.107
					c0-1.217,0.987-2.203,2.204-2.203c1.217,0,2.203,0.986,2.203,2.203c0,1.217-0.986,2.203-2.203,2.203
					C319.877,60.311,318.891,59.324,318.891,58.107z"/>
				<path opacity="0.63" fill="#FFFFFF" d="M110.363,109.108c-0.083,0.307-0.14,0.617-0.175,0.929l-1.654,0.341l0.805,3.9
					l1.654-0.341c0.156,0.272,0.331,0.535,0.529,0.784l-0.927,1.409l3.327,2.189l0.927-1.409c0.307,0.083,0.617,0.14,0.929,0.176
					l0.341,1.654l3.9-0.805l-0.341-1.654c0.272-0.156,0.535-0.331,0.784-0.529l1.409,0.927l2.189-3.327l-1.409-0.927
					c0.083-0.307,0.14-0.617,0.176-0.929l1.654-0.341l-0.805-3.9l-1.654,0.341c-0.156-0.272-0.331-0.535-0.529-0.784l0.927-1.409
					l-3.327-2.189l-0.927,1.409c-0.307-0.083-0.617-0.14-0.929-0.176l-0.341-1.654l-3.9,0.805l0.341,1.654
					c-0.272,0.156-0.535,0.331-0.784,0.529l-1.409-0.927l-2.189,3.327L110.363,109.108z M113.155,108.562
					c1.218-1.851,3.706-2.364,5.557-1.146c1.851,1.218,2.364,3.706,1.147,5.557c-1.218,1.851-3.706,2.364-5.557,1.146
					C112.45,112.9,111.937,110.413,113.155,108.562z M130.176,114.253c-0.052,0.193-0.088,0.388-0.11,0.584l-1.04,0.215l0.506,2.452
					l1.04-0.215c0.098,0.171,0.208,0.336,0.333,0.493l-0.583,0.886l2.092,1.376l0.583-0.886c0.193,0.052,0.388,0.088,0.584,0.11
					l0.215,1.04l2.452-0.506l-0.215-1.04c0.171-0.098,0.336-0.209,0.493-0.333l0.886,0.583l1.376-2.092l-0.886-0.583
					c0.052-0.193,0.088-0.388,0.11-0.584l1.04-0.215l-0.506-2.452l-1.04,0.215c-0.098-0.171-0.208-0.336-0.333-0.493l0.583-0.886
					l-2.092-1.376l-0.583,0.886c-0.193-0.052-0.388-0.088-0.584-0.11l-0.215-1.04l-2.452,0.506l0.215,1.04
					c-0.171,0.098-0.336,0.208-0.493,0.333l-0.886-0.583l-1.376,2.092L130.176,114.253z M131.932,113.91
					c0.766-1.164,2.33-1.487,3.494-0.721c1.164,0.766,1.487,2.33,0.721,3.494c-0.766,1.164-2.33,1.487-3.494,0.721
					C131.489,116.638,131.166,115.073,131.932,113.91z"/>
				<path opacity="0.63" fill="#FFFFFF" d="M481.564,241.286c0.264-0.33,0.499-0.678,0.708-1.039l2.197,0.464l1.094-5.182
					l-2.198-0.464c-0.046-0.415-0.119-0.828-0.228-1.237l1.879-1.224l-2.89-4.438l-1.879,1.224c-0.33-0.264-0.678-0.499-1.039-0.708
					l0.464-2.198l-5.182-1.094l-0.464,2.197c-0.415,0.046-0.828,0.119-1.237,0.228l-1.224-1.879l-4.438,2.89l1.224,1.879
					c-0.264,0.33-0.499,0.678-0.708,1.039l-2.198-0.464l-1.094,5.182l2.198,0.464c0.046,0.415,0.119,0.828,0.228,1.237l-1.879,1.224
					l2.89,4.438l1.879-1.224c0.33,0.264,0.678,0.499,1.039,0.708l-0.464,2.197l5.182,1.094l0.464-2.198
					c0.415-0.046,0.828-0.119,1.237-0.228l1.224,1.879l4.438-2.89L481.564,241.286z M477.87,240.467
					c-2.469,1.608-5.775,0.91-7.383-1.559c-1.608-2.469-0.91-5.775,1.559-7.383c2.469-1.608,5.775-0.91,7.383,1.559
					C481.037,235.553,480.339,238.859,477.87,240.467z M460.151,224.473c0.166-0.207,0.314-0.426,0.445-0.653l1.382,0.292
					l0.688-3.258l-1.382-0.292c-0.029-0.261-0.075-0.521-0.143-0.778l1.182-0.769l-1.818-2.79l-1.181,0.77
					c-0.208-0.166-0.426-0.314-0.654-0.445l0.292-1.382l-3.258-0.688l-0.292,1.382c-0.261,0.029-0.521,0.075-0.778,0.143
					l-0.77-1.182l-2.79,1.817l0.77,1.181c-0.166,0.208-0.314,0.427-0.446,0.654l-1.382-0.292l-0.688,3.258l1.382,0.292
					c0.029,0.261,0.075,0.521,0.143,0.778l-1.182,0.77l1.818,2.79l1.181-0.77c0.207,0.166,0.427,0.314,0.653,0.445l-0.292,1.382
					l3.258,0.688l0.292-1.382c0.261-0.029,0.521-0.075,0.778-0.143l0.77,1.182l2.79-1.817L460.151,224.473z M457.829,223.958
					c-1.553,1.011-3.631,0.572-4.642-0.98c-1.011-1.553-0.572-3.631,0.98-4.642c1.553-1.011,3.631-0.572,4.642,0.98
					C459.82,220.869,459.381,222.947,457.829,223.958z"/>
				<g>
					<circle fill="#FFFFFF" cx="291.434" cy="33.783" r="7.578"/>
					<path fill="#00EBD5" d="M291.434,28.031c-0.257,0.959-0.391,1.917-0.475,2.876c-0.085,0.959-0.119,1.917-0.108,2.876
						l0.583-0.583c-0.846,0.012-1.692,0.046-2.539,0.14c-0.846,0.09-1.692,0.212-2.539,0.443c0.846,0.231,1.692,0.353,2.539,0.443
						c0.846,0.094,1.693,0.128,2.539,0.14l0.577,0.008l0.007-0.592c0.011-0.959-0.023-1.917-0.108-2.876
						C291.825,29.948,291.692,28.99,291.434,28.031z"/>
				</g>
				<g>
					<circle fill="#FFFFFF" cx="441.42" cy="90.864" r="9.938"/>
					<path fill="#FF7171" d="M441.658,92.647l2.792,4.803c0.199,0.343,0.639,0.459,0.982,0.26c0.343-0.199,0.459-0.639,0.26-0.982
						l-2.792-4.803c1.864-1.49,2.424-4.152,1.19-6.276c-1.358-2.336-4.363-3.132-6.699-1.775c-2.336,1.358-3.133,4.364-1.775,6.7
						C436.85,92.699,439.441,93.53,441.658,92.647z M436.857,89.854c-0.96-1.651-0.397-3.777,1.255-4.737
						c1.652-0.96,3.776-0.397,4.736,1.255c0.96,1.652,0.397,3.776-1.254,4.736C439.942,92.068,437.817,91.505,436.857,89.854z"/>
				</g>
				<g>
					<circle fill="#FFFFFF" cx="84.104" cy="225.932" r="10.954"/>
					<path fill="#F7C90B" d="M81.577,229.977v0.591h-0.124v2.457h5.302v-2.457H86.63v-0.59c0-1.255,0.496-2.525,1.433-3.674
						c0.942-1.153,1.319-2.609,1.061-4.097c-0.375-2.18-2.178-3.89-4.381-4.158c-1.463-0.18-2.927,0.275-4.017,1.241
						c-1.093,0.968-1.72,2.359-1.72,3.818c0,1.168,0.409,2.308,1.152,3.21C81.085,227.448,81.577,228.714,81.577,229.977z
						 M85.572,229.978v0.217h-0.514c0.52-1.791,1.104-4.236,0.57-4.686c-0.2-0.169-0.464-0.204-0.723-0.098
						c-0.03,0.012-0.059,0.026-0.088,0.042c-0.166-0.256-0.4-0.392-0.66-0.381h-0.001c-0.285,0.013-0.53,0.145-0.699,0.37
						c-0.182-0.093-0.376-0.135-0.547-0.084c-0.106,0.032-0.255,0.11-0.361,0.301c-0.435,0.785,0.236,3.274,0.621,4.536h-0.535
						v-0.218c0-1.511-0.574-3.009-1.661-4.331c-0.596-0.724-0.911-1.602-0.911-2.538c0-1.156,0.497-2.259,1.363-3.026
						c0.879-0.779,2.018-1.124,3.189-0.984c1.717,0.209,3.175,1.593,3.467,3.289c0.206,1.182-0.093,2.336-0.838,3.248
						C86.149,226.975,85.572,228.477,85.572,229.978z M83.729,230.195c-0.488-1.571-1.01-3.757-0.705-4.307
						c0.016-0.029,0.034-0.048,0.046-0.052c0.023,0.001,0.087,0.015,0.18,0.074c-0.057,0.275-0.031,0.579,0.139,0.75
						c0.113,0.113,0.277,0.151,0.431,0.103c0.274-0.085,0.393-0.329,0.298-0.609c-0.043-0.126-0.131-0.264-0.247-0.391
						c0.116-0.181,0.266-0.182,0.309-0.19c0.064-0.003,0.128,0.071,0.161,0.116c0.026,0.036,0.049,0.076,0.069,0.116
						c-0.129,0.168-0.215,0.357-0.219,0.519c-0.004,0.169,0.081,0.31,0.229,0.377c0.167,0.076,0.341,0.054,0.464-0.055
						c0.179-0.16,0.184-0.455,0.127-0.715c0.03-0.022,0.063-0.041,0.095-0.056c0.102-0.045,0.136-0.014,0.162,0.008
						c0.223,0.295-0.206,2.37-0.768,4.311H83.729z"/>
				</g>
			</g>
			<g>
				<g>
					<path fill="#B6B9FF" d="M366.556,61.404c0.426-0.526,16.425-15.085,16.425-15.085l2.81,1.796L366.556,61.404z"/>
					<polygon fill="#7474E2" points="385.79,48.115 389.338,56.776 366.556,61.404 					"/>
					<polygon fill="#9A9AE5" points="389.338,56.776 366.556,61.404 389.217,50.035 					"/>
					<polygon fill="#B6B9FF" points="389.217,50.035 366.556,61.404 393.865,53.362 					"/>
				</g>
				<g>
					<path fill="#B6B9FF" d="M474.536,195.433c-0.586-0.11-19.64-0.765-19.64-0.765l-0.863,2.81L474.536,195.433z"/>
					<polygon fill="#7474E2" points="454.033,197.478 456.59,205.32 474.536,195.433 					"/>
					<polygon fill="#9A9AE5" points="456.59,205.32 474.536,195.433 452.826,200.722 					"/>
					<polygon fill="#B6B9FF" points="452.826,200.722 474.536,195.433 451.601,205.609 					"/>
				</g>
				<g>
					<path fill="#B6B9FF" d="M195.412,30.366c-0.204,0.405-1.779,6.385-1.779,6.385l-13.499,7.676L195.412,30.366z"/>
					<polygon fill="#7474E2" points="197.989,41.634 193.634,36.751 180.135,44.428 					"/>
					<polygon fill="#9A9AE5" points="197.989,41.634 192.104,41.31 180.135,44.428 					"/>
					<polygon fill="#B6B9FF" points="192.104,41.31 189.961,48.646 180.135,44.428 					"/>
				</g>
				<g>
					<path fill="#B6B9FF" d="M40.195,176.812c0.499,0.391,6.058,7.02,6.058,7.02l21.66,1.665L40.195,176.812z"/>
					<polygon fill="#7474E2" points="43.653,192.608 46.253,183.832 67.914,185.497 					"/>
					<polygon fill="#9A9AE5" points="43.653,192.608 50.908,188.688 67.914,185.497 					"/>
					<polygon fill="#B6B9FF" points="50.908,188.688 57.994,196.694 67.914,185.497 					"/>
				</g>
			</g>
			<g>
				<g>
					<path opacity="0.5" fill="#CBC2FF" d="M160.191,257.396h257.693c3.125,0,5.658-2.533,5.658-5.658V116.853
						c0-3.125-2.533-5.658-5.658-5.658H160.191c-3.125,0-5.658,2.533-5.658,5.658v134.885
						C154.533,254.863,157.066,257.396,160.191,257.396z"/>
					<path fill="#D2D5F7" d="M155.435,250.738h257.693c3.125,0,5.658-2.533,5.658-5.658V110.194c0-3.125-2.533-5.658-5.658-5.658
						H155.435c-3.125,0-5.658,2.533-5.658,5.658v134.885C149.777,248.204,152.31,250.738,155.435,250.738z"/>
					<path fill="#FFFFFF" d="M155.396,251.091h257.77c3.104,0,5.62-2.516,5.62-5.62v-130.77h-269.01v130.77
						C149.777,248.575,152.293,251.091,155.396,251.091z"/>
				</g>
				<g>
					<circle fill="#FF005C" cx="168.732" cy="109.533" r="1.594"/>
					<circle fill="#FFC136" cx="163.534" cy="109.533" r="1.594"/>
					<circle fill="#00EAD9" cx="158.335" cy="109.533" r="1.594"/>
				</g>
				<g>
					<g>
						<path opacity="0.45" fill="#E4E5FB" d="M401.955,156.733c0-4.827-1.31-9.35-3.587-13.226
							c-4.546-7.744-12.961-12.945-22.584-12.945c-6.753,0-12.906,2.558-17.538,6.761c-5.303,4.788-8.625,11.705-8.625,19.41
							c0,14.45,11.713,26.163,26.163,26.163c11.105,0,20.603-6.925,24.401-16.688C401.331,163.268,401.955,160.07,401.955,156.733z
							 M391.147,156.733c0,1.988-0.374,3.891-1.076,5.646c-2.238,5.693-7.791,9.717-14.287,9.717c-0.133,0-0.265-0.008-0.39-0.016
							c-8.305-0.195-14.973-6.995-14.973-15.347c0-4.5,1.934-8.547,5.014-11.347c2.729-2.496,6.363-4.016,10.348-4.016
							c5.685,0,10.645,3.08,13.296,7.674C390.398,151.297,391.147,153.925,391.147,156.733z"/>
						<path fill="#E4E5FB" d="M375.784,182.896v-10.801c-0.133,0-0.265-0.008-0.39-0.016c-8.305-0.195-14.973-6.995-14.973-15.347
							c0-4.5,1.934-8.547,5.014-11.347l-7.19-8.063c-5.303,4.788-8.625,11.705-8.625,19.41
							C349.621,171.183,361.334,182.896,375.784,182.896z"/>
						<path fill="#9A9AE5" d="M401.953,156.732c0-4.826-1.308-9.351-3.583-13.228l-9.292,5.539c1.32,2.257,2.068,4.885,2.068,7.69
							c0,1.992-0.377,3.895-1.072,5.645l10.111,3.83C401.328,163.266,401.953,160.073,401.953,156.732z"/>
						<path fill="#B6B9FF" d="M398.37,143.503c-4.549-7.743-12.963-12.94-22.585-12.94c-6.753,0-12.904,2.557-17.542,6.759
							l7.194,8.061c2.728-2.493,6.358-4.013,10.347-4.013c5.68,0,10.641,3.082,13.293,7.672L398.37,143.503z"/>
					</g>
					<path fill="#E4E5FB" d="M245.662,137.312h85.177c1.751,0,3.169,1.419,3.169,3.169l0,0c0,1.751-1.419,3.169-3.17,3.169h-85.177
						c-1.75,0-3.169-1.419-3.169-3.169l0,0C242.492,138.731,243.911,137.312,245.662,137.312z M245.662,154.485h85.177
						c1.75,0,3.169-1.419,3.169-3.169v0c0-1.751-1.419-3.17-3.169-3.17h-85.177c-1.75,0-3.169,1.419-3.169,3.17l0,0
						C242.492,153.066,243.911,154.485,245.662,154.485z M245.662,165.319h85.177c1.75,0,3.169-1.419,3.169-3.169l0,0
						c0-1.75-1.419-3.169-3.169-3.169h-85.177c-1.75,0-3.169,1.419-3.169,3.169l0,0C242.492,163.9,243.911,165.319,245.662,165.319z
						 M245.662,176.153h85.177c1.75,0,3.169-1.419,3.169-3.169v0c0-1.75-1.419-3.169-3.169-3.169h-85.177
						c-1.75,0-3.169,1.419-3.169,3.169l0,0C242.492,174.734,243.911,176.153,245.662,176.153z"/>
					<path fill="#E4E5FB" d="M166.608,195.999v-0.095c0-1.724,1.389-3.122,3.114-3.122c11.061,0,48.389,0,59.449,0
						c1.724,0,3.114,1.398,3.114,3.122c0,0.032,0,0.063,0,0.095c0,1.724-1.398,3.122-3.122,3.122H169.73
						C168.006,199.122,166.608,197.724,166.608,195.999z M229.162,203.617l-59.432,0c-1.724,0-3.122,1.398-3.122,3.122v0.094
						c0,1.724,1.398,3.122,3.122,3.122h59.432c1.724,0,3.122-1.398,3.122-3.122v-0.095
						C232.284,205.015,230.887,203.617,229.162,203.617z M166.608,217.573v0.094c0,1.724,1.398,3.122,3.122,3.122h59.432
						c1.724,0,3.122-1.398,3.122-3.122v-0.094c0-1.724-1.398-3.122-3.122-3.122H169.73
						C168.006,214.451,166.608,215.849,166.608,217.573z M169.777,231.624h59.338c1.75,0,3.169-1.419,3.169-3.169l0,0
						c0-1.75-1.419-3.169-3.169-3.169h-59.338c-1.75,0-3.169,1.419-3.169,3.169l0,0
						C166.608,230.205,168.027,231.624,169.777,231.624z"/>
					<path fill="#E4E5FB" d="M351.848,234.235h42.236c4.478,0,8.107-3.63,8.107-8.107v-27.088c0-4.477-3.63-8.107-8.107-8.107
						h-42.236c-4.478,0-8.107,3.63-8.107,8.107v27.088C343.741,230.605,347.371,234.235,351.848,234.235z"/>
					<g>
						<defs>
							<path id="SVGID_3_" d="M226.633,186.639h-54.374c-3.121,0-5.652-2.53-5.652-5.652v-42.198c0-3.121,2.53-5.652,5.652-5.652
								h54.374c3.121,0,5.652,2.53,5.652,5.652v42.198C232.284,184.108,229.754,186.639,226.633,186.639z"/>
						</defs>
						<clipPath id="SVGID_4_">
							<use xlink:href="#SVGID_3_"  overflow="visible"/>
						</clipPath>
						<path clip-path="url(#SVGID_4_)" fill="#E4E5FB" d="M226.633,186.639h-54.374c-3.121,0-5.652-2.53-5.652-5.652v-42.198
							c0-3.121,2.53-5.652,5.652-5.652h54.374c3.121,0,5.652,2.53,5.652,5.652v42.198
							C232.284,184.108,229.754,186.639,226.633,186.639z"/>
						<path clip-path="url(#SVGID_4_)" fill="#9A9AE5" d="M184.715,180.184l31.648-16.538c1.746-0.913,3.849-0.816,5.504,0.253
							l29.425,18.997v5.432H184.49L184.715,180.184z"/>
						<path clip-path="url(#SVGID_4_)" fill="#B6B9FF" d="M163.632,174.565l21.119-17.053c1.913-1.545,4.622-1.624,6.622-0.194
							l41.904,29.96h-70.917L163.632,174.565z"/>
						<circle clip-path="url(#SVGID_4_)" fill="#B6B9FF" cx="207.471" cy="147.093" r="6.161"/>
					</g>
					<path fill="#E4E5FB" d="M295.121,208.999h5.917c1.718,0,3.11,1.392,3.11,3.11v18.897c0,1.718-1.392,3.11-3.11,3.11h-5.917
						c-1.718,0-3.11-1.392-3.11-3.11v-18.897C292.011,210.391,293.403,208.999,295.121,208.999z M313.497,201.32h6.235
						c1.63,0,2.951,1.321,2.951,2.951v26.893c0,1.63-1.321,2.951-2.951,2.951h-6.235c-1.63,0-2.951-1.321-2.951-2.951v-26.893
						C310.546,202.642,311.867,201.32,313.497,201.32z M272.915,203.481v27.676c0,1.634,1.324,2.958,2.958,2.958h6.22
						c1.634,0,2.958-1.324,2.958-2.958l0-27.676c0-1.634-1.324-2.958-2.958-2.958h-6.22
						C274.239,200.523,272.915,201.847,272.915,203.481z M262.997,187.343h-6.22c-1.634,0-2.958,1.325-2.958,2.958l0,40.856
						c0,1.634,1.324,2.958,2.958,2.958h6.22c1.634,0,2.958-1.324,2.958-2.958v-40.856
						C265.955,188.667,264.631,187.343,262.997,187.343z"/>
					<path fill="#FFFFFF" d="M366.556,223.053v-20.94c0-1.678,1.864-2.684,3.267-1.763l15.741,10.338
						c1.26,0.827,1.27,2.67,0.02,3.512l-15.741,10.602C368.442,225.746,366.556,224.743,366.556,223.053z"/>
				</g>
			</g>
			<path fill="#4E01D4" d="M439.182,283.45H116.01c-1.236,0-2.238-1.002-2.238-2.238l0,0c0-1.236,1.002-2.237,2.238-2.237h323.172
				c1.236,0,2.237,1.002,2.237,2.237l0,0C441.42,282.448,440.418,283.45,439.182,283.45z"/>
			<g>
				<path opacity="0.5" fill="#CBC2FF" d="M273.801,109.533h-42.798c-5.219,0-9.45-4.231-9.45-9.45V75.962
					c0-5.219,4.231-9.45,9.45-9.45h42.798c5.219,0,9.45,4.231,9.45,9.45v24.121C283.251,105.302,279.02,109.533,273.801,109.533z"/>
				<path fill="#FFFFFF" d="M269.888,107.044H227.09c-5.219,0-9.45-4.231-9.45-9.45V73.474c0-5.219,4.231-9.45,9.45-9.45h42.798
					c5.219,0,9.45,4.231,9.45,9.45v24.121C279.338,102.814,275.107,107.044,269.888,107.044z"/>
				<path fill="#D2D5F7" d="M279.338,73.66H217.64v-0.328c0-5.141,4.167-9.308,9.308-9.308h43.082c5.141,0,9.308,4.168,9.308,9.308
					V73.66z"/>
				<g>
					<circle fill="#FF005C" cx="223.544" cy="69.197" r="0.998"/>
					<circle fill="#FFC136" cx="227.974" cy="69.197" r="0.998"/>
					<circle fill="#00EAD9" cx="232.404" cy="69.197" r="0.998"/>
				</g>
				<g>
					<path fill="#E4E5FB" d="M223.045,99.826h50.888c0.479,0,0.868,0.389,0.868,0.868v0.061c0,0.479-0.389,0.868-0.868,0.868
						h-50.888c-0.479,0-0.868-0.389-0.868-0.868v-0.061C222.177,100.214,222.566,99.826,223.045,99.826z"/>
					<path fill="#9594F9" d="M223.045,94.895h50.888c0.479,0,0.868,0.389,0.868,0.868v0.061c0,0.479-0.389,0.868-0.868,0.868
						h-50.888c-0.479,0-0.868-0.389-0.868-0.868v-0.061C222.177,95.284,222.566,94.895,223.045,94.895z"/>
					<path fill="#9594F9" d="M223.045,89.965h50.888c0.479,0,0.868,0.389,0.868,0.868v0.061c0,0.479-0.389,0.868-0.868,0.868
						h-50.888c-0.479,0-0.868-0.389-0.868-0.868v-0.061C222.177,90.353,222.566,89.965,223.045,89.965z"/>
					<path fill="#9594F9" d="M260.439,82.431c0,3.121-2.53,5.651-5.651,5.651c-3.121,0-5.651-2.53-5.651-5.651
						c0-3.121,2.53-5.651,5.651-5.651C257.909,76.78,260.439,79.31,260.439,82.431z M268.877,76.78c-3.121,0-5.651,2.53-5.651,5.651
						c0,3.121,2.53,5.651,5.651,5.651c3.121,0,5.651-2.53,5.651-5.651C274.527,79.31,271.997,76.78,268.877,76.78z"/>
				</g>
			</g>
			<g>
				<path opacity="0.5" fill="#CBC2FF" d="M294.986,278.975h-42.798c-5.219,0-9.45-4.231-9.45-9.45v-24.121
					c0-5.219,4.231-9.45,9.45-9.45h42.798c5.219,0,9.45,4.231,9.45,9.45v24.121C304.435,274.744,300.205,278.975,294.986,278.975z"
					/>
				<path fill="#FFFFFF" d="M291.487,278.975h-42.798c-5.219,0-9.45-4.231-9.45-9.45v-24.121c0-5.219,4.231-9.45,9.45-9.45h42.798
					c5.219,0,9.45,4.231,9.45,9.45v24.121C300.937,274.744,296.706,278.975,291.487,278.975z"/>
				<path fill="#D2D5F7" d="M300.937,245.59h-61.698v-0.328c0-5.141,4.167-9.308,9.308-9.308h43.082
					c5.141,0,9.308,4.167,9.308,9.308V245.59z"/>
				<g>
					<circle fill="#FF005C" cx="245.143" cy="241.127" r="0.998"/>
					<circle fill="#FFC136" cx="249.573" cy="241.127" r="0.998"/>
					<circle fill="#00EAD9" cx="254.003" cy="241.127" r="0.998"/>
				</g>
				<g>
					<path fill="#E4E5FB" d="M244.644,271.756h50.888c0.479,0,0.868,0.389,0.868,0.868v0.061c0,0.479-0.389,0.868-0.868,0.868
						h-50.888c-0.479,0-0.868-0.389-0.868-0.868v-0.061C243.776,272.144,244.165,271.756,244.644,271.756z"/>
					<path fill="#E4E5FB" d="M244.644,266.825h50.888c0.479,0,0.868,0.389,0.868,0.868v0.061c0,0.48-0.389,0.868-0.868,0.868
						h-50.888c-0.479,0-0.868-0.389-0.868-0.868v-0.061C243.776,267.214,244.165,266.825,244.644,266.825z"/>
					<path fill="#00EAD9" d="M244.644,261.895h50.888c0.479,0,0.868,0.389,0.868,0.868v0.061c0,0.48-0.389,0.868-0.868,0.868
						h-50.888c-0.479,0-0.868-0.389-0.868-0.868v-0.061C243.776,262.284,244.165,261.895,244.644,261.895z"/>
					<circle fill="#9594F9" cx="291.654" cy="255.092" r="4.746"/>
					<circle fill="#9594F9" cx="278.61" cy="255.092" r="4.746"/>
					<circle fill="#FFC136" cx="265.566" cy="255.092" r="4.746"/>
				</g>
			</g>
			<g>
				<path opacity="0.5" fill="#CBC2FF" d="M151.707,189.127h-42.798c-5.219,0-9.45-4.231-9.45-9.45v-24.121
					c0-5.219,4.231-9.45,9.45-9.45h42.798c5.219,0,9.45,4.231,9.45,9.45v24.121C161.157,184.896,156.926,189.127,151.707,189.127z"
					/>
				<path fill="#FFFFFF" d="M148.208,186.753H105.41c-5.219,0-9.45-4.231-9.45-9.45v-24.121c0-5.219,4.231-9.45,9.45-9.45h42.798
					c5.219,0,9.45,4.231,9.45,9.45v24.121C157.658,182.522,153.427,186.753,148.208,186.753z"/>
				<path fill="#D2D5F7" d="M157.658,153.368H95.96v-0.328c0-5.141,4.167-9.308,9.308-9.308h43.082c5.141,0,9.308,4.167,9.308,9.308
					V153.368z"/>
				<g>
					<circle fill="#FF005C" cx="101.864" cy="148.906" r="0.998"/>
					<circle fill="#FFC136" cx="106.294" cy="148.906" r="0.998"/>
					<circle fill="#00EAD9" cx="110.724" cy="148.906" r="0.998"/>
				</g>
				<g>
					<path fill="#E4E5FB" d="M101.365,179.534h50.888c0.479,0,0.868,0.389,0.868,0.868v0.061c0,0.479-0.389,0.868-0.868,0.868
						h-50.888c-0.479,0-0.868-0.389-0.868-0.868v-0.061C100.497,179.923,100.886,179.534,101.365,179.534z"/>
					<path fill="#E4E5FB" d="M101.365,174.604h50.888c0.479,0,0.868,0.389,0.868,0.868v0.061c0,0.479-0.389,0.868-0.868,0.868
						h-50.888c-0.479,0-0.868-0.389-0.868-0.868v-0.061C100.497,174.992,100.886,174.604,101.365,174.604z"/>
					<path fill="#00EAD9" d="M101.365,169.673h50.888c0.479,0,0.868,0.389,0.868,0.868v0.061c0,0.48-0.389,0.868-0.868,0.868
						h-50.888c-0.479,0-0.868-0.389-0.868-0.868v-0.061C100.497,170.062,100.886,169.673,101.365,169.673z"/>
					<circle fill="#9594F9" cx="148.375" cy="162.871" r="4.746"/>
					<circle fill="#9594F9" cx="135.331" cy="162.871" r="4.746"/>
					<circle fill="#FFC136" cx="122.288" cy="162.871" r="4.746"/>
				</g>
			</g>
			<g>
				<path fill="#7474E2" d="M180.665,244.686c-9.803-9.528-2.904-20.152-9.863-26.648c-2.476-2.311-6.088-2.599-9.201-1.624
					c-14.197,4.447-24.141,19.367-24.141,34.614c0,8.635,2.225,21.729,7.583,27.946h59.549c3.593-4.56,7.194-12.523,8.782-19.663
					C214.945,252.255,196.355,259.937,180.665,244.686z"/>
				<path fill="#B6B9FF" d="M156.463,247.029c-5.82-8.616-5.469-24.377,4.159-30.286c-13.672,4.813-23.161,19.393-23.161,34.286
					c0,8.635,2.225,21.729,7.583,27.946h59.549c3.668-3.635,7.397-12.685,8.782-19.663
					C207.048,261.557,170.949,268.473,156.463,247.029z"/>
			</g>
			<g>
				<path fill="#11025F" d="M209.93,254.645c4.023-0.397,6.563,0.138,6.404,1.858c-0.243,2.623-9.306,3.184-10.684,0.627
					C205.147,256.197,205.706,255.062,209.93,254.645z"/>
				<g>
					<path fill="#3700BF" d="M179.18,248.99c-2.324,6.673-1.675,9.053,3.701,10.86c3.148,1.058,11.69,1.259,17.663,0.887
						c15.444-0.962,12.576-10.753,4.729-10.3c-1.597,0.092-3.211,1.259-6.939,0.261c-3.728-0.999-9.184-2.855-9.184-2.855
						L179.18,248.99z"/>
					<g>
						<path fill="#C6C9FA" d="M185.795,226.128c-1.143,0.21-2.4,1.52-2.57,2.671c-0.734,4.951,0.171,17.322,1.095,18.988
							c1.27,2.29,15.486,3.273,16.795,3.365c0.826,0.058,1.98-0.332,2.719-0.628c0.48-0.192,1.008-0.209,1.499-0.049
							c1.01,0.331,1.899,0.29,2.272,0.091c0.542-0.289-2.246-2.283-3.587-2.547c-0.783-0.154-3.118,0.317-3.832,0.59
							c-0.59,0.225-10.544-2.531-11.573-4.175c-0.898-1.436,0.453-13.285-0.223-16.388
							C187.733,225.025,185.795,226.128,185.795,226.128z"/>
						<path fill="#00EBD5" d="M187.537,223.019c-4.623-0.178-5.449,9.342-5.449,9.342c1.749,1.318,4.269,1.809,7.186,1.874
							C189.134,231.858,191.703,223.179,187.537,223.019z"/>
					</g>
					<path fill="#430CBC" d="M197.443,251.806c0,0,12.761,1.547,14.813,3.423c0.728,0.665,1.236,3.485-0.903,3.871
						c-8.946,1.614-14.353,1.81-14.353,1.81L197.443,251.806z"/>
					<path fill="#4E01D4" d="M201.871,255.518c0,6.187-8.041,6.012-12.531,6.012c-4.49,0-17.312,0.869-16.774-11.083
						c0.408-9.054,11.702,1.148,16.193,1.148C193.248,251.596,201.871,250.587,201.871,255.518z"/>
					<path fill="#00EBD5" d="M188.131,223.573c-3.568-3.036-13.655-3.167-15.704,6.15c-3.387,15.402-0.974,20.078-0.974,20.078
						c6.133,1.438,20.098,3.036,24.235,0.63c0,0-3.148-3.824-4.223-9.971C190.593,235.473,191.017,226.028,188.131,223.573z"/>
					<g>
						<path fill="#C6C9FA" d="M175.161,226.128c-1.143,0.21-2.4,1.52-2.57,2.671c-0.734,4.951,0.172,17.322,1.096,18.988
							c1.27,2.29,15.486,3.273,16.795,3.365c0.826,0.058,1.98-0.332,2.719-0.628c0.479-0.192,1.008-0.209,1.499-0.049
							c1.01,0.331,1.899,0.29,2.272,0.091c0.542-0.289-2.246-2.283-3.587-2.547c-0.783-0.154-3.118,0.317-3.832,0.59
							c-0.589,0.225-10.544-2.531-11.573-4.175c-0.898-1.436,0.453-13.285-0.223-16.388
							C177.099,225.025,175.161,226.128,175.161,226.128z"/>
						<path fill="#00EBD5" d="M176.903,223.019c-4.623-0.178-5.449,9.342-5.449,9.342c1.749,1.318,4.269,1.809,7.186,1.874
							C178.499,231.858,181.069,223.179,176.903,223.019z"/>
					</g>
					<path fill="#C6C9FA" d="M180.652,218.589c0,0-0.29,1.082,0,3.857c0.078,0.746,4.222,2.364,3.723,0.534
						c-0.638-2.34-0.469-3.374-0.562-3.363L180.652,218.589z"/>
					<path fill="#C6C9FA" d="M180.015,216.56c0.035,0.105,0.059,0.214,0.074,0.324c0.115,0.813,0.356,1.619,0.825,2.29
						c0.501,0.716,1.292,1.263,2.164,1.324c0.79,0.056,1.575-0.291,2.156-0.828c0.581-0.537,0.976-1.251,1.247-1.995
						c0.426-1.167,0.914-2.618,0.236-3.658c-0.327-0.502-2.035-1.335-3.252-1.881c-0.74-0.332-1.61-0.144-2.15,0.463l-1.189,1.336
						c-0.442,0.497-0.586,1.192-0.377,1.824L180.015,216.56z"/>
					<path fill="#3F00C3" d="M181.222,216.619c-0.842-2.758-1.847-0.526-0.789,0.905c0.018,0.381-0.063,0.559,0.239,1.255
						c-0.646-0.41-0.842-0.466-1.747-1.603c-0.885-1.111-2.065-6,1.291-7.247c3.614-4.719,8.773,2.485,9.585,2.115
						c-0.037,0.962-0.839,2.956-2.836,3.187c-0.867,0.1-2.61,0.292-3.411-0.051C181.994,214.51,181.333,216.983,181.222,216.619z"/>
					<g>
						<g>
							<path fill="#B6B9FF" d="M212.295,251.806h-15.549c-0.304,0-0.55-0.246-0.55-0.55c0-0.304,0.246-0.55,0.55-0.55l2.774-14.668
								c0,0,15.114-0.06,15.416,0c0.298,0.061,0.49,0.351,0.43,0.649L212.295,251.806z"/>
						</g>
						<g>
							<path fill="#9594F9" d="M196.879,251.806H181.33c-0.304,0-0.55-0.246-0.55-0.55c0-0.304,0.246-0.55,0.55-0.55h14.651
								l2.891-14.239c0.061-0.297,0.347-0.49,0.649-0.43c0.298,0.061,0.49,0.351,0.43,0.649L196.879,251.806z"/>
						</g>
					</g>
					<path fill="#11025F" d="M193.292,258.15c4.055,0.165,7.051,0.713,6.629,2.22c-0.56,2.001-10.87,2.648-10.837,0.314
						C189.103,259.348,189.05,257.977,193.292,258.15z"/>
				</g>
			</g>
			<g>
				<g>
					<path fill="#9594F9" d="M438.631,278.975h-41.32c-1.068,0-1.934-0.866-1.934-1.934v-48.59c0-1.068,0.866-1.934,1.934-1.934
						h41.32c1.068,0,1.934,0.866,1.934,1.934v48.59C440.564,278.109,439.699,278.975,438.631,278.975z"/>
					<g>
						<path fill="#B6B9FF" d="M435.69,243.733h-35.439c-1.068,0-1.934-0.866-1.934-1.934v-10.142c0-1.068,0.866-1.934,1.934-1.934
							h35.439c1.068,0,1.934,0.866,1.934,1.934v10.142C437.624,242.867,436.758,243.733,435.69,243.733z"/>
						<path fill="#B6B9FF" d="M435.69,259.751h-35.439c-1.068,0-1.934-0.866-1.934-1.934v-10.143c0-1.068,0.866-1.934,1.934-1.934
							h35.439c1.068,0,1.934,0.866,1.934,1.934v10.142C437.624,258.885,436.758,259.751,435.69,259.751z"/>
						<path fill="#B6B9FF" d="M435.69,275.77h-35.439c-1.068,0-1.934-0.866-1.934-1.934v-10.142c0-1.068,0.866-1.934,1.934-1.934
							h35.439c1.068,0,1.934,0.866,1.934,1.934v10.142C437.624,274.904,436.758,275.77,435.69,275.77z"/>
					</g>
				</g>
			</g>
			<g>
				<g>
					<path fill="#16D6CC" d="M426.311,269.401c1.775-4.329,3.563-8.707,4.295-13.329c0.732-4.622,0.319-9.579-2.083-13.595
						c-0.329-0.55-0.702-1.089-1.215-1.474c-0.512-0.385-1.187-0.599-1.806-0.433c-0.787,0.211-1.301,0.958-1.661,1.688
						c-1.944,3.933-1.424,8.625-0.341,12.877c1.083,4.252,2.692,8.438,2.805,12.824"/>
					<g opacity="0.35">
						<path fill="#60C6BC" d="M426.901,268.679c0.23,0,0.422-0.178,0.436-0.411c0.483-7.839,0.143-15.754-1.01-23.527
							c-0.035-0.238-0.265-0.404-0.496-0.368c-0.239,0.035-0.404,0.257-0.368,0.496c1.144,7.713,1.481,15.568,1.002,23.346
							c-0.015,0.241,0.168,0.449,0.41,0.463C426.883,268.679,426.892,268.679,426.901,268.679z"/>
					</g>
				</g>
				<g>
					<path fill="#00EBD5" d="M427.63,269.444c-1.05-3.019-0.814-6.306-0.932-9.5c-0.118-3.194-0.723-6.618-3.003-8.858
						c-0.644-0.633-1.422-1.155-2.299-1.371c-0.877-0.216-1.859-0.096-2.584,0.442c-0.992,0.736-1.325,2.07-1.392,3.304
						c-0.188,3.475,1.2,6.888,3.219,9.723c2.018,2.834,4.642,5.173,7.249,7.477"/>
					<g opacity="0.35">
						<path fill="#60C6BC" d="M427.454,270.297c0.129,0.029,0.27-0.002,0.379-0.095c0.183-0.156,0.205-0.433,0.047-0.617
							c-3.971-4.641-6.49-10.544-7.094-16.623c-0.024-0.24-0.239-0.416-0.479-0.392c-0.24,0.024-0.416,0.238-0.392,0.479
							c0.622,6.255,3.214,12.33,7.3,17.106C427.28,270.229,427.364,270.278,427.454,270.297z"/>
					</g>
				</g>
				<g>
					<path fill="#51F4E0" d="M427.241,269.737c1.714-0.527,3.142-1.723,4.381-3.02c2.401-2.512,4.286-5.514,5.507-8.767
						c0.395-1.053,0.725-2.151,0.735-3.276c0.011-1.125-0.329-2.29-1.119-3.092c-1.187-1.206-3.201-1.329-4.712-0.567
						c-1.511,0.762-2.551,2.253-3.127,3.844c-0.575,1.591-0.74,3.297-0.901,4.981c-0.278,2.925-0.557,5.85-0.835,8.775"/>
					<g opacity="0.35">
						<path fill="#60C6BC" d="M426.864,268.828c0.108,0,0.217-0.04,0.302-0.12c3.742-3.565,6.33-8.326,7.287-13.406
							c0.045-0.238-0.111-0.466-0.349-0.511c-0.232-0.046-0.466,0.11-0.511,0.348c-0.924,4.902-3.421,9.496-7.031,12.934
							c-0.175,0.167-0.182,0.443-0.016,0.618C426.633,268.783,426.749,268.828,426.864,268.828z"/>
					</g>
				</g>
				<polygon fill="#4E01D4" points="423.594,279.013 431.67,279.013 434.57,267.933 420.694,267.933 				"/>
				<rect x="420.106" y="266.776" fill="#9594F9" width="15.051" height="3.637"/>
			</g>
			<path fill="#FF7171" d="M132.508,237.795c-7.246,0-13.12,5.874-13.12,13.12c0,2.259,0.926,4.768,1.576,6.24
				c1.981,4.487,7.34,15.255,10.129,20.819c0.699,1.394,2.698,1.36,3.348-0.057c2.538-5.543,7.411-16.155,9.611-20.762
				c0.91-1.905,1.576-3.981,1.576-6.24C145.628,243.669,139.754,237.795,132.508,237.795z M132.508,257.132
				c-3.434,0-6.217-2.783-6.217-6.217c0-3.434,2.783-6.217,6.217-6.217c3.434,0,6.217,2.784,6.217,6.217
				C138.724,254.349,135.941,257.132,132.508,257.132z"/>
			<g>
				<path opacity="0.5" fill="#CBC2FF" d="M207.331,148.476h19.931c1.567,0,2.838,1.27,2.838,2.838v13.539
					c0,1.567-1.27,2.838-2.838,2.838h-1.448l3.131,3.184l-8.16-3.184h-13.453c-1.567,0-2.838-1.27-2.838-2.838v-13.539
					C204.493,149.746,205.763,148.476,207.331,148.476z"/>
				<path fill="#FFFFFF" d="M206.375,166.194h18.02c2.095,0,3.793-1.698,3.793-3.793v-11.628c0-2.095-1.698-3.793-3.793-3.793
					h-18.02c-2.095,0-3.793,1.698-3.793,3.793v11.628C202.582,164.496,204.28,166.194,206.375,166.194z"/>
				<polyline fill="#FFFFFF" points="222.959,165.233 227.034,169.378 216.412,165.233 				"/>
				<path fill="#E4E5FB" d="M225.409,153.43h-20.047c-0.413,0-0.748-0.335-0.748-0.748s0.335-0.748,0.748-0.748h20.047
					c0.413,0,0.748,0.335,0.748,0.748S225.822,153.43,225.409,153.43z M226.157,156.587c0-0.413-0.335-0.748-0.748-0.748h-20.047
					c-0.413,0-0.748,0.335-0.748,0.748c0,0.413,0.335,0.748,0.748,0.748h20.047C225.822,157.335,226.157,157,226.157,156.587z
					 M226.157,160.492c0-0.413-0.335-0.748-0.748-0.748h-20.047c-0.413,0-0.748,0.335-0.748,0.748c0,0.413,0.335,0.748,0.748,0.748
					h20.047C225.822,161.24,226.157,160.905,226.157,160.492z"/>
			</g>
			<g>
				<path opacity="0.5" fill="#CBC2FF" d="M373.006,219.341h-19.931c-1.567,0-2.838,1.27-2.838,2.838v13.539
					c0,1.567,1.271,2.838,2.838,2.838h1.448l-3.131,3.184l8.16-3.184h13.453c1.567,0,2.838-1.27,2.838-2.838v-13.539
					C375.844,220.611,374.573,219.341,373.006,219.341z"/>
				<path fill="#FFFFFF" d="M370.387,236.99h-18.02c-2.095,0-3.793-1.698-3.793-3.793v-11.628c0-2.095,1.698-3.793,3.793-3.793
					h18.02c2.095,0,3.793,1.698,3.793,3.793v11.628C374.18,235.292,372.482,236.99,370.387,236.99z"/>
				<polyline fill="#FFFFFF" points="353.804,236.03 349.729,240.174 360.35,236.03 				"/>
				<path fill="#E4E5FB" d="M350.605,223.478c0-0.413,0.335-0.748,0.748-0.748H371.4c0.413,0,0.748,0.335,0.748,0.748
					s-0.335,0.748-0.748,0.748h-20.047C350.94,224.226,350.605,223.891,350.605,223.478z M351.353,228.131H371.4
					c0.413,0,0.748-0.335,0.748-0.748c0-0.413-0.335-0.748-0.748-0.748h-20.047c-0.413,0-0.748,0.335-0.748,0.748
					C350.605,227.796,350.94,228.131,351.353,228.131z M351.353,232.036H371.4c0.413,0,0.748-0.335,0.748-0.748
					c0-0.413-0.335-0.748-0.748-0.748h-20.047c-0.413,0-0.748,0.335-0.748,0.748C350.605,231.701,350.94,232.036,351.353,232.036z"
					/>
			</g>
			<g>
				<g>
					<g>
						<path fill="#7474E2" d="M226.617,278.975c-0.077,0-0.154-0.009-0.231-0.028c-0.512-0.127-0.825-0.646-0.698-1.159
							l26.321-106.032c0.127-0.513,0.645-0.826,1.159-0.698c0.512,0.127,0.824,0.646,0.697,1.158l-26.321,106.033
							C227.435,278.684,227.046,278.975,226.617,278.975z"/>
					</g>
					<g>
						<path fill="#7474E2" d="M247.597,278.975c-0.077,0-0.154-0.009-0.232-0.028c-0.512-0.127-0.824-0.646-0.697-1.159
							l26.321-106.032c0.127-0.513,0.644-0.826,1.159-0.698c0.513,0.127,0.824,0.646,0.697,1.158l-26.321,106.033
							C248.416,278.684,248.026,278.975,247.597,278.975z"/>
					</g>
					<g>
						<path fill="#7474E2" d="M251.775,260.782l-20.842-0.073l0.007-1.912l20.842,0.073L251.775,260.782z M255.117,247.281
							l-20.841-0.073l0.007-1.912l20.842,0.073L255.117,247.281z M258.46,233.78l-20.842-0.073l0.007-1.912l20.843,0.073
							L258.46,233.78z M261.802,220.278l-20.841-0.073l0.007-1.912l20.842,0.073L261.802,220.278z M265.145,206.778l-20.843-0.073
							l0.008-1.912l20.842,0.073L265.145,206.778z M268.488,193.277l-20.843-0.073l0.007-1.912l20.842,0.073L268.488,193.277z
							 M271.829,179.776l-20.841-0.073l0.007-1.912l20.842,0.073L271.829,179.776z"/>
					</g>
				</g>
				<g>
					<path fill="#C6C9FA" d="M257.903,186.613c1.281-0.513,1.965-1.883,3.304-1.686c0.735,0.108,0.43,2.241-0.682,3.401
						c-0.264,0.275-2.348,0.914-2.348,0.914L257.903,186.613z"/>
					<polygon fill="#11025F" points="248.251,229.954 252.09,229.649 251.848,230.966 256.697,233.332 247.189,232.659 					"/>
					<polygon fill="#11025F" points="235.924,243.182 239.763,242.876 239.521,244.193 244.37,246.559 234.862,245.887 					"/>
					<path fill="#F7C90B" d="M258.827,185.517c0,0-5.325,2.37-8.231,2.37c-1.971,0-3.837-10.571-8.032-10.571
						c-0.41,2.572,0.227,4.872-0.499,7.376c1.559,3.982,3.96,8.381,6.117,8.966c2.415,0.656,10.646-4.311,10.646-4.311V185.517z"/>
					<path fill="#4E01D4" d="M248.962,198.409c-4.008,1.193-9.383,3.429-13.575,3.491c-0.008,0.932-0.011,1.849-0.005,2.556
						c-0.034,4.439,5.323,22.013,5.323,22.013l-5.236,16.919l4.414,0.318l7.365-16.474c0,0-0.363-9.022-1.691-18.391
						c1.727,1.497,8.165,6.045,9.055,6.867c-0.929,2.518-6.813,14.579-6.813,14.579l4.838,0.255c0,0,9.403-15.039,9.303-16.666
						C259.007,208.542,251.117,200.443,248.962,198.409z"/>
					<path fill="#F7C90B" d="M246.503,190.933c-0.756,0.256-1.768-0.306-1.457-1.283c1.259-3.972,0.394-10.122-1.75-11.853
						c-2.305-1.86-5.618-1.435-8.241-0.761c-7.052,4.793-3.352,26.481-1.057,33.273c9.37-2.034,13.56-3.218,18.847-8.351
						C251.744,198.443,246.125,194.039,246.503,190.933z"/>
					<path opacity="0.47" fill="#F7C90B" d="M244.269,196.25c-9.213,0.317-9.505-6.991-13.223-8.863
						c0.153,1.228-0.044,7.885,3.081,12.735c1.445,2.243,16.432,1.928,18.551,1.398c-0.607-1.499-1.928-3.137-3.195-4.756
						C247.756,196.705,246.042,196.189,244.269,196.25z"/>
					<path fill="#C6C9FA" d="M239.223,174.315c-0.018,1.321-0.086,1.456-0.331,2.215c0.805,1.122,2.259,2.175,2.789,2.07
						c0.529-0.105-0.104-0.971-0.105-1.068c-0.005-1.153,0.227-1.673,0.498-2.794"/>
					<path fill="#B6B9FF" d="M261.201,165.139l25.065,4.59c1.468,0.269,2.441,1.677,2.172,3.146l-5.24,28.617
						c-0.269,1.468-1.677,2.441-3.146,2.172l-25.065-4.59c-1.468-0.269-2.441-1.677-2.172-3.146l5.24-28.617
						C258.324,165.842,259.733,164.87,261.201,165.139z"/>
					<path fill="#C6C9FA" d="M244.921,169.686c-0.039,2.957-1.841,7.675-4.876,5.538c-3.034-2.137-3.294-5.571-3.294-5.571
						S242.055,162.4,244.921,169.686z"/>
					<path fill="#C6C9FA" d="M253.568,196.98c1.377,0.089,2.533-0.728,3.332-0.275c0.8,0.453,2.758,2.852-1.065,2.763
						c-3.823-0.089-3.153,0.002-3.153,0.002L253.568,196.98z"/>
					<path fill="#F7C90B" d="M236.983,177.316c-0.916-1.19-3.787-0.077-4.758,1.292c-3.674,5.184,0.826,16.825,1.579,18.537
						c1.638,3.725,19.743,2.899,19.743,2.899l1.015-3.3c0,0-13.999-1.801-15.67-3.026
						C238.241,193.241,240.222,181.527,236.983,177.316z"/>
					<path fill="#3F00C3" d="M248.175,166.744c-0.44-0.577-1.411-0.631-1.913-0.108c0.333-0.421,0.273-1.099-0.128-1.456
						c-0.401-0.357-1.082-0.337-1.461,0.043c0.148-0.478-0.346-0.959-0.846-0.997c-0.499-0.037-0.968,0.222-1.401,0.473
						c-0.104-0.432-0.467-0.792-0.9-0.891c-0.433-0.099-0.917,0.066-1.199,0.409c0.027-0.3-0.241-0.565-0.534-0.631
						c-0.294-0.066-0.6,0.021-0.879,0.133c-0.508,0.204-0.999,0.511-1.285,0.979c-0.285,0.468-0.315,1.12,0.04,1.537
						c-0.177-0.252-0.57-0.282-0.828-0.113c-0.258,0.169-0.388,0.485-0.409,0.792c-0.02,0.307,0.054,0.612,0.128,0.911
						c-0.214-0.362-0.761-0.426-1.109-0.19c-0.348,0.236-0.501,0.69-0.468,1.109c0.032,0.419,0.223,0.81,0.442,1.168
						c0.22,0.359,0.472,0.699,0.652,1.079c-0.888,2.186,2.579,3.341,3.21,3.648c0.476-0.239,0.304-1.801,0.246-1.886
						c-1.14-1.682,0.811-3.221,0.777-0.559c0,0,0.174,0.78,0.565-0.608c0,0,0.317-1.546,3.246-1.174c0.05,0.006,0.094,0,0.143,0.002
						c0.102,0.073,0.212,0.132,0.336,0.156c0.292,0.057,0.604-0.051,0.816-0.259c0.129-0.031,0.251-0.068,0.366-0.11
						c0.331,0.163,0.692,0.268,1.059,0.25c0.442-0.022,0.888-0.242,1.11-0.625c0.222-0.383,0.167-0.928-0.177-1.208
						C248.41,168.271,248.615,167.32,248.175,166.744z"/>
				</g>
			</g>
			<g>
				<g>
					<polygon fill="#11025F" points="391.373,252.802 393.419,248.368 401.055,247.514 395.709,251.596 393.928,253.73 					"/>
					<polygon fill="#11025F" points="398.833,253.496 400.879,249.062 408.515,251.337 403.169,252.29 401.388,254.424 					"/>
					<path fill="#3700BF" d="M383.087,268.902c2.096-7.12,2.825-10.778,7.719-16.359c0.653-0.745,4.284-0.188,4.852,0.624
						c-5.421,7.585-6.485,23.811-8.981,25.012c-2.495,1.201-21.058-0.168-30.504-0.074c1.124-0.011,6.978-7.514,6.998-8.279
						C363.372,262.268,378.794,267.054,383.087,268.902z"/>
					<path fill="#4E01D4" d="M387.928,272.485c2.097-7.12,5.24-13.881,10.134-19.461c0.653-0.745,4.503-0.587,5.071,0.224
						c-5.421,7.585-6.609,24.242-9.104,25.443c-2.495,1.201-21.233,0.352-30.679,0.445c1.124-0.011-0.32-8.557-0.178-9.309
						C364.559,262.445,383.636,270.637,387.928,272.485z"/>
					<g>
						<path fill="#C6C9FA" d="M336.59,264.617c1.143,0.21,1.833,1.477,1.706,2.633c-0.589,5.385-0.244,9.137-4.034,10.975
							c-2.356,1.142-17.465,0.438-18.774,0.53c-0.826,0.058-1.98-0.332-2.719-0.628c-0.479-0.192-1.008-0.209-1.499-0.049
							c-1.01,0.331-1.899,0.29-2.272,0.091c-0.542-0.289,2.246-2.283,3.587-2.547c0.783-0.154,3.118,0.317,3.832,0.59
							c0.59,0.225,12.512-0.305,14.268-1.127c2.303-1.078,2.107-4.05,3.956-7.581C336.075,264.766,336.59,264.617,336.59,264.617z"
							/>
						<path fill="#FF7171" d="M337.264,263.973c3.509,1.218-0.39,8.31-0.39,8.31c-1.693,0.475-3.132-0.442-5.332-1.246
							C332.342,269.3,334.101,262.875,337.264,263.973z"/>
					</g>
					<path fill="#FF7171" d="M337.864,276.089c-3.275-1.854-6.301-13.062,2.94-14.537c6.463-1.032,9.286,2.698,14.029,4.448
						c6.685,2.466,10.05,0.657,10.05,0.657c1.504,6.117,2.517,9.748-1.077,12.558c0,0-2.726-0.451-10.4-0.102
						C348.349,279.344,343.847,279.476,337.864,276.089z"/>
					<g>
						<path fill="#C6C9FA" d="M344.852,264.396c1.143,0.21,1.925,1.491,1.707,2.633c-1.117,5.836-1.466,8.682-5.903,11.502
							c-2.21,1.405-15.596-0.09-16.905,0.002c-0.826,0.058-1.98-0.332-2.719-0.628c-0.479-0.192-1.008-0.209-1.499-0.049
							c-1.01,0.331-1.899,0.29-2.272,0.091c-0.543-0.289,2.246-2.283,3.587-2.547c0.783-0.154,3.118,0.317,3.832,0.59
							c0.59,0.225,11.158,0.414,12.914-0.408c2.303-1.078,2.484-5.316,4.333-8.846C343.361,263.998,344.852,264.396,344.852,264.396
							z"/>
						<path fill="#FF7171" d="M345.275,263.408c4.37,1.517,0.512,10.511,0.512,10.511c-2.109,0.591-3.765-0.287-6.506-1.289
							C340.277,270.468,341.336,262.041,345.275,263.408z"/>
					</g>
					<path fill="#C6C9FA" d="M338.511,259.341c0,0,0.412,0.685,1.223,3.094c0.544,1.614-2.71,4.9-2.915,1.892
						c-0.166-2.42-0.617-2.477-0.531-2.513L338.511,259.341z"/>
					<path fill="#C6C9FA" d="M339.15,257.402c-0.001,0.111,0.01,0.221,0.029,0.331c0.139,0.809,0.157,1.65-0.084,2.432
						c-0.258,0.836-0.843,1.598-1.655,1.924c-0.735,0.295-1.588,0.206-2.306-0.128c-0.718-0.333-1.313-0.892-1.799-1.517
						c-0.763-0.98-1.672-2.212-1.345-3.41c0.158-0.578,1.529-1.894,2.519-2.787c0.603-0.543,1.489-0.63,2.188-0.218l1.541,0.907
						c0.573,0.337,0.923,0.955,0.918,1.62L339.15,257.402z"/>
					<path fill="#3F00C3" d="M337.997,257.76c-0.044-2.883,1.597-1.067,1.029,0.619c0.1,0.368,0.231,0.513,0.157,1.268
						c0.489-0.589,0.659-0.702,1.172-2.062c0.501-1.329,0.127-6.344-3.45-6.502c-4.886-3.384-7.589,5.054-8.476,4.951
						c0.33,0.904,1.705,2.557,3.676,2.164c0.856-0.17,2.574-0.522,3.232-1.094C336.617,255.989,338.003,258.141,337.997,257.76z"/>
					<g>
						<g>
							<path fill="#B6B9FF" d="M299.169,278.975h15.549c0.304,0,0.55-0.246,0.55-0.55c0-0.304-0.246-0.55-0.55-0.55l-2.774-14.668
								c0,0-15.114-0.06-15.416,0c-0.297,0.061-0.49,0.351-0.43,0.649L299.169,278.975z"/>
						</g>
						<g>
							<path fill="#9594F9" d="M314.585,278.975h15.55c0.304,0,0.55-0.246,0.55-0.55c0-0.304-0.246-0.55-0.55-0.55h-14.651
								l-2.891-14.239c-0.061-0.298-0.347-0.49-0.649-0.43c-0.298,0.061-0.49,0.351-0.43,0.649L314.585,278.975z"/>
						</g>
					</g>
					<path fill="#3F00C3" d="M336.685,251.451c0.286-1.798,1.146-3.526,2.517-4.724c1.371-1.198,3.265-1.824,5.061-1.526
						c1.796,0.298,3.435,1.568,4.036,3.286c0.756,2.161-0.114,4.686,0.84,6.766c0.578,1.261,1.731,2.141,2.726,3.108
						c0.995,0.967,1.914,2.221,1.787,3.602c-0.15,1.63-1.826,2.829-3.463,2.838s-3.155-0.932-4.267-2.132
						c-1.096-1.183-1.915-2.781-1.641-4.37c0.293-1.7,1.755-3.026,2.024-4.729c0.303-1.916-1.151-3.862-3.023-4.371
						c-1.872-0.509-4.633,1.056-5.926,2.503"/>
				</g>
			</g>
			<g>
				<path fill="#E4E5FB" d="M410.879,215.989l0.016-2.28c0-3.515-1.389-7.075-4.014-10.295c-2.639-3.231-3.696-7.309-2.973-11.48
					c1.051-6.107,6.101-10.898,12.275-11.65c4.098-0.504,8.199,0.77,11.256,3.478c3.062,2.712,4.819,6.611,4.819,10.697
					c0,3.272-1.146,6.465-3.227,8.994c-2.602,3.166-3.979,6.713-3.979,10.253l0.03,2.284H410.879z"/>
				<path fill="#FFFFFF" d="M420.252,215.29c0.017-0.338,0.034-0.676,0.042-1.015c0.006-0.292,3.252-11.168,2.032-13.368
					c-0.297-0.536-0.714-0.754-1.012-0.843c-0.477-0.143-1.023-0.027-1.532,0.235c-0.473-0.632-1.16-1.001-1.959-1.037
					c-0.002,0-0.002,0-0.002,0c-0.729-0.032-1.382,0.351-1.849,1.067c-0.08-0.044-0.163-0.083-0.246-0.117
					c-0.727-0.296-1.467-0.199-2.027,0.276c-1.48,1.248,1.851,13.351,1.851,13.651v1.151H420.252z M414.707,201.538
					c0.075-0.062,0.169-0.148,0.455-0.023c0.092,0.042,0.182,0.095,0.267,0.157c-0.158,0.729-0.144,1.555,0.356,2.003
					c0.343,0.305,0.832,0.368,1.299,0.155c0.415-0.187,0.655-0.581,0.642-1.055c-0.011-0.456-0.249-0.985-0.612-1.455
					c0.054-0.113,0.119-0.223,0.193-0.326c0.092-0.125,0.271-0.333,0.451-0.325c0.119,0.021,0.541,0.025,0.865,0.532
					c-0.325,0.355-0.573,0.742-0.693,1.095c-0.266,0.784,0.067,1.469,0.834,1.707c0.432,0.134,0.891,0.028,1.209-0.288
					c0.476-0.48,0.549-1.333,0.388-2.102c0.26-0.166,0.44-0.204,0.505-0.208c0.035,0.011,0.083,0.065,0.129,0.145
					c0.853,1.541-0.607,7.665-1.975,12.066h-2.161C415.284,208.177,414.081,202.365,414.707,201.538z"/>
				<path fill="#4E01D4" d="M409.419,217.167L409.419,217.167c0,1.037,0.841,1.878,1.878,1.878h13.349
					c1.037,0,1.878-0.841,1.878-1.878l0,0c0-1.037-0.841-1.878-1.878-1.878h-13.349C410.259,215.29,409.419,216.13,409.419,217.167z
					"/>
				<path fill="#4E01D4" d="M409.419,220.923L409.419,220.923c0,1.037,0.841,1.878,1.878,1.878h13.349
					c1.037,0,1.878-0.841,1.878-1.878l0,0c0-1.037-0.841-1.878-1.878-1.878h-13.349
					C410.259,219.045,409.419,219.886,409.419,220.923z"/>
				<path fill="#4E01D4" d="M409.419,224.678L409.419,224.678c0,1.037,0.841,1.878,1.878,1.878h13.349
					c1.037,0,1.878-0.841,1.878-1.878l0,0c0-1.037-0.841-1.878-1.878-1.878h-13.349C410.259,222.8,409.419,223.641,409.419,224.678z
					"/>
			</g>
		</g>
		<g>
			<circle fill="#7474E2" cx="116.659" cy="131.583" r="3.274"/>
			<circle fill="#7474E2" cx="475.828" cy="139.374" r="3.55"/>
			<circle fill="#7474E2" cx="348.455" cy="45.112" r="3.422"/>
			<circle fill="#7474E2" cx="462.317" cy="255.576" r="2.408"/>
			<circle fill="#7474E2" cx="29.079" cy="239.186" r="2.408"/>
			<circle fill="#7474E2" cx="187.385" cy="70.038" r="2.849"/>
			<circle fill="#7474E2" cx="114.442" cy="61.538" r="2.444"/>
			<circle fill="#7474E2" cx="303.066" cy="87.793" r="2.444"/>
			<circle fill="#7474E2" cx="70.706" cy="265.143" r="2.444"/>
			<circle fill="#7474E2" cx="450.743" cy="180.752" r="2.444"/>
			<circle fill="#7474E2" cx="410.27" cy="90.238" r="2.444"/>
		</g>
	</g>
</g>
<g id="DESIGNED_BY_FREEPIK" display="none">
</g>
</svg>
